<svg width="24" height="24" viewBox="0 0 24 24" fill="none" xmlns="http://www.w3.org/2000/svg">
<g clip-path="url(#clip0_3343_704)">
<path fill-rule="evenodd" clip-rule="evenodd" d="M17.0691 1.12964C17.3769 -0.276205 19.3786 -0.284955 19.6987 1.11815L19.7133 1.18262C19.7232 1.2262 19.7323 1.26638 19.7421 1.30826C20.0945 2.80955 21.3096 3.9567 22.8304 4.22128C24.2974 4.47652 24.2974 6.58252 22.8304 6.83776C21.3014 7.10375 20.0817 8.26173 19.7364 9.77484L19.6987 9.94089C19.3786 11.344 17.3769 11.3352 17.0691 9.92939L17.0379 9.78691C16.7055 8.26836 15.4874 7.10184 13.9559 6.83539C12.4915 6.58063 12.4915 4.4784 13.9559 4.22364C15.482 3.95812 16.697 2.79878 17.0344 1.28798L17.0574 1.18348L17.0691 1.12964ZM13.6604 8.53308C10.8313 8.0409 10.3785 4.55064 12.3022 3.0989C11.2988 2.71257 10.2088 2.5008 9.06928 2.5008C4.09871 2.5008 0.0692749 6.53025 0.0692749 11.5008C0.0692749 14.566 1.70185 17.6462 3.52655 19.9133C4.44822 21.0583 5.44911 22.0344 6.3778 22.7328C6.84183 23.0817 7.30185 23.3719 7.73708 23.5781C8.15961 23.7783 8.62064 23.9294 9.06928 23.9294C9.51791 23.9294 9.97893 23.7783 10.4015 23.5781C10.8367 23.3719 11.2967 23.0817 11.7607 22.7328C12.6894 22.0344 13.6903 21.0583 14.612 19.9133C16.201 17.939 17.6443 15.3482 17.9906 12.6877C16.8073 12.5429 15.7025 11.7453 15.3857 10.2979L15.3545 10.1554C15.1718 9.32073 14.5022 8.67954 13.6604 8.53308ZM9.06928 14.5008C10.7261 14.5008 12.0693 13.1577 12.0693 11.5008C12.0693 9.84395 10.7261 8.5008 9.06928 8.5008C7.41243 8.5008 6.06928 9.84395 6.06928 11.5008C6.06928 13.1577 7.41243 14.5008 9.06928 14.5008Z" fill="#238466"/>
</g>
<defs>
<clipPath id="clip0_3343_704">
<rect width="24" height="24" fill="white"/>
</clipPath>
</defs>
</svg>
