<?xml version="1.0" standalone="no"?>
<!DOCTYPE svg PUBLIC "-//W3C//DTD SVG 20010904//EN"
 "http://www.w3.org/TR/2001/REC-SVG-20010904/DTD/svg10.dtd">
<svg version="1.0" xmlns="http://www.w3.org/2000/svg"
 width="300.000000pt" height="300.000000pt" viewBox="0 0 300.000000 300.000000"
 preserveAspectRatio="xMidYMid meet">
<metadata>
Created by potrace 1.10, written by Peter Selinger 2001-2011
</metadata>
<g transform="translate(0.000000,300.000000) scale(0.100000,-0.100000)"
fill="#000000" stroke="none">
<path d="M1345 2525 c-150 -33 -294 -117 -379 -220 -55 -69 -118 -193 -141
-280 -21 -79 -21 -233 0 -316 25 -99 104 -246 240 -449 165 -244 375 -524 398
-528 44 -9 67 11 164 140 326 434 463 652 514 818 34 108 32 263 -5 375 -58
179 -175 318 -337 398 -52 26 -126 54 -164 62 -85 18 -209 18 -290 0z m362
-73 c191 -71 320 -207 389 -412 28 -83 26 -273 -4 -355 -12 -33 -31 -67 -42
-77 -24 -19 -26 -33 -5 -24 18 7 18 4 3 -29 -8 -19 -18 -25 -39 -23 -16 1 -37
-6 -48 -17 -32 -28 -33 -14 -4 48 25 53 51 74 54 45 4 -36 18 88 18 161 l1 84
23 -22 c20 -18 26 -19 35 -8 9 11 5 20 -18 42 -30 29 -45 80 -16 56 10 -8 16
-8 24 2 9 10 4 21 -23 47 l-34 33 -31 -33 c-18 -19 -29 -39 -25 -48 4 -12 8
-12 20 -2 9 7 19 10 22 6 8 -7 -20 -59 -34 -63 -14 -4 -64 110 -63 145 0 30 2
32 21 21 37 -19 44 5 10 34 -35 29 -43 55 -11 35 14 -9 22 -10 31 -1 8 8 3 17
-20 34 -35 25 -42 50 -12 42 32 -8 32 12 1 42 l-30 29 -25 -24 c-28 -27 -32
-40 -10 -40 24 0 18 -18 -17 -49 -26 -24 -30 -32 -21 -42 10 -10 17 -9 33 6
19 18 20 18 20 -2 0 -11 -9 -28 -19 -37 -18 -17 -21 -16 -66 18 -26 20 -53 36
-60 36 -8 0 -39 22 -69 48 -30 27 -73 54 -94 60 -93 28 -210 1 -272 -63 -41
-43 -50 -44 -50 -5 0 20 5 30 15 30 20 0 19 5 -7 40 -22 30 -19 52 5 32 8 -7
18 -7 27 -2 11 7 7 16 -23 45 l-37 36 -37 -36 c-28 -27 -34 -38 -25 -47 9 -9
15 -9 24 0 7 7 16 12 20 12 17 0 7 -21 -22 -46 -31 -28 -31 -49 1 -41 16 4 19
-1 19 -36 -1 -38 -6 -46 -54 -84 -29 -24 -56 -43 -60 -43 -3 0 -6 17 -6 37 0
29 3 34 12 25 16 -16 48 -15 48 1 0 7 -13 23 -30 35 -35 26 -44 70 -10 52 16
-9 22 -8 27 6 4 12 -4 25 -28 45 l-34 28 -35 -34 c-26 -27 -32 -37 -23 -46 9
-9 16 -9 28 1 13 10 15 9 15 -6 0 -11 -14 -31 -32 -46 -27 -22 -31 -29 -20
-40 10 -10 16 -10 33 1 21 12 21 12 14 -55 -6 -60 -38 -144 -56 -144 -16 0
-37 36 -29 50 7 10 10 11 10 3 0 -17 19 -17 26 0 5 15 -47 77 -65 77 -6 0 -11
-6 -11 -14 0 -8 -10 -22 -21 -30 -13 -9 -19 -21 -16 -30 7 -18 27 -22 27 -6 0
6 5 10 10 10 19 0 10 -27 -20 -55 -16 -16 -30 -35 -30 -42 0 -15 26 -18 35 -3
18 29 25 -1 25 -112 l0 -121 -24 22 c-63 59 -83 289 -37 426 73 219 237 377
446 429 42 11 97 14 180 12 105 -3 130 -7 202 -34z m-127 -292 c70 -36 120
-113 120 -183 0 -18 -12 -58 -27 -88 -22 -42 -38 -59 -73 -76 -75 -39 -217
-26 -273 25 -87 78 -69 242 33 307 75 47 147 52 220 15z m201 -142 c44 -81
-26 -219 -138 -274 -64 -32 -189 -44 -258 -25 -70 19 -147 72 -179 124 -40 65
-47 141 -16 180 35 45 51 36 34 -20 -39 -129 86 -255 253 -255 116 1 200 43
249 127 21 37 25 54 22 97 -2 29 -8 61 -13 72 -7 16 -6 17 13 7 12 -6 27 -21
33 -33z m95 -23 c-1 -19 -11 -44 -22 -56 l-19 -21 -5 43 c-4 36 -2 46 15 56
30 19 34 16 31 -22z m-746 -42 l-1 -38 -15 28 c-15 27 -12 47 7 47 5 0 9 -17
9 -37z m-32 -108 c-1 -75 3 -92 31 -149 37 -75 100 -137 191 -185 45 -24 59
-36 51 -44 -14 -14 -71 5 -127 44 -66 45 -150 142 -168 196 -27 76 -32 167
-12 198 9 14 20 25 25 25 5 0 9 -38 9 -85z m802 70 c16 -20 7 -93 -19 -143
-75 -147 -269 -293 -501 -376 -80 -29 -125 -35 -141 -19 -6 6 26 21 93 43 189
62 331 149 449 277 61 65 80 104 86 175 6 60 12 68 33 43z m-85 -105 c-30 -90
-134 -159 -272 -180 -130 -20 -275 25 -367 115 -44 43 -46 46 -46 102 l1 58
13 -36 c35 -100 130 -170 269 -199 69 -14 172 1 244 36 64 31 138 111 155 167
11 39 12 40 16 14 2 -15 -4 -50 -13 -77z m156 -37 c23 -60 -25 -219 -91 -303
-29 -36 -36 -40 -78 -41 -41 0 -44 -2 -24 -11 12 -6 22 -15 22 -20 0 -14 -16
-9 -34 11 -17 18 -16 20 10 38 90 60 151 167 161 281 6 76 17 90 34 45z m-943
-29 c5 -71 22 -138 54 -207 17 -37 28 -70 25 -73 -16 -16 -41 12 -73 79 -37
78 -51 152 -40 212 9 47 30 41 34 -11z m868 -45 c-15 -92 -98 -199 -187 -238
-37 -17 -89 -18 -89 -1 0 4 29 21 64 39 35 17 77 47 93 65 46 56 90 119 104
149 17 38 23 34 15 -14z m-589 -80 c69 -32 187 -45 256 -27 88 23 77 10 -51
-59 l-66 -36 -44 17 c-86 31 -222 135 -222 168 0 6 19 -2 43 -16 23 -15 61
-36 84 -47z m-119 -132 c-27 -10 -44 5 -74 65 -38 75 -28 78 35 8 53 -59 57
-66 39 -73z m-208 82 c0 -37 -27 -50 -46 -24 -20 27 -17 40 9 52 29 14 37 8
37 -28z m28 -88 c34 -42 144 -120 214 -151 120 -53 288 -67 423 -35 95 22 214
88 294 162 36 35 67 63 69 63 16 0 -79 -151 -227 -360 -102 -145 -285 -384
-297 -387 -25 -8 -524 698 -524 741 0 16 20 2 48 -33z m259 -28 c2 -6 -13 -17
-34 -23 -54 -18 -59 -22 -37 -32 13 -6 10 -7 -11 -2 -43 8 -75 31 -69 49 4 8
15 15 26 15 10 0 16 -4 13 -10 -8 -13 2 -12 45 5 40 16 62 15 67 -2z m358 -44
c22 -4 61 -8 87 -9 55 0 71 -16 31 -31 -53 -21 -223 16 -223 48 0 12 7 14 33
8 17 -4 50 -11 72 -16z m-92 -43 c38 -13 64 -27 58 -30 -35 -22 -220 -14 -228
9 -3 9 66 41 92 43 6 1 41 -9 78 -22z"/>
<path d="M1484 2402 c-23 -15 -36 -52 -24 -67 39 -47 116 0 82 51 -10 15 -45
25 -58 16z m44 -40 c4 -28 -24 -40 -45 -19 -21 21 -9 49 19 45 15 -2 24 -11
26 -26z"/>
<path d="M1673 2350 c-23 -14 -34 -29 -39 -56 -6 -34 -4 -40 25 -66 38 -34 61
-35 96 -5 50 42 32 122 -30 141 -12 3 -34 -2 -52 -14z m68 -20 c26 -14 25 -58
-3 -87 -26 -27 -35 -28 -60 -6 -24 21 -24 78 0 92 22 13 39 13 63 1z"/>
<path d="M1692 2283 c4 -21 33 -25 33 -3 0 8 -8 16 -18 18 -14 3 -18 -1 -15
-15z"/>
<path d="M1560 2111 c-48 -15 -70 -35 -76 -71 -4 -19 -11 -43 -16 -52 -11 -22
-72 -54 -121 -63 -55 -11 -46 -27 11 -19 65 9 118 40 133 78 29 75 42 95 64
100 12 3 25 13 29 21 3 8 4 15 3 14 -1 0 -13 -4 -27 -8z"/>
<path d="M1626 2033 c-9 -67 -56 -146 -98 -165 -18 -8 -49 -22 -68 -31 l-35
-17 40 6 c102 15 162 84 172 196 7 70 -2 78 -11 11z"/>
<path d="M1823 1314 c-26 -32 -70 -82 -96 -113 -27 -31 -94 -118 -149 -193
-55 -76 -104 -138 -109 -138 -5 0 -9 -5 -9 -11 0 -12 68 41 69 53 1 8 174 241
196 264 5 6 30 35 55 64 25 30 53 62 62 71 18 19 41 59 34 59 -3 0 -26 -25
-53 -56z"/>
<path d="M904 645 c-4 -9 -2 -21 4 -27 15 -15 44 -1 40 19 -4 23 -36 29 -44 8z"/>
<path d="M1002 648 c-21 -25 2 -39 59 -36 46 3 54 6 54 23 0 17 -8 20 -51 23
-33 2 -55 -2 -62 -10z"/>
<path d="M1173 644 c-3 -8 -1 -20 4 -25 5 -5 164 -8 399 -7 381 3 389 3 389
23 0 20 -8 20 -393 23 -350 2 -393 1 -399 -14z"/>
<path d="M2023 649 c-16 -16 -5 -39 18 -39 24 0 37 29 18 41 -18 11 -23 11
-36 -2z"/>
</g>
</svg>
