<svg width="18" height="18" viewBox="0 0 18 18" fill="none" xmlns="http://www.w3.org/2000/svg">
<path d="M7.30729 4.21991C7.94937 2.61922 8.2704 1.81888 8.79198 1.70796C8.92913 1.67879 9.07087 1.67879 9.20802 1.70796C9.72959 1.81888 10.0506 2.61922 10.6927 4.21991C11.0578 5.13019 11.2404 5.58533 11.582 5.8949C11.6778 5.98173 11.7819 6.05906 11.8926 6.12581C12.2874 6.36378 12.7803 6.40793 13.7661 6.49621C15.4349 6.64566 16.2693 6.72039 16.5241 7.19613C16.5768 7.29466 16.6127 7.40134 16.6302 7.51174C16.7147 8.04476 16.1013 8.60282 14.8745 9.71894L14.5338 10.0289C13.9603 10.5507 13.6735 10.8116 13.5076 11.1372C13.4081 11.3325 13.3414 11.5429 13.3102 11.7598C13.258 12.1215 13.342 12.5 13.51 13.257L13.57 13.5275C13.8712 14.885 14.0218 15.5637 13.8338 15.8974C13.6649 16.1971 13.3539 16.3889 13.0103 16.4053C12.6277 16.4236 12.0888 15.9844 11.0108 15.106C10.3006 14.5273 9.94547 14.2379 9.55126 14.1249C9.19101 14.0216 8.80899 14.0216 8.44874 14.1249C8.05453 14.2379 7.69942 14.5273 6.98921 15.106C5.91124 15.9844 5.37225 16.4236 4.98973 16.4053C4.64613 16.3889 4.33509 16.1971 4.16622 15.8974C3.97823 15.5637 4.12882 14.885 4.43002 13.5275L4.49003 13.257C4.65798 12.5 4.74196 12.1215 4.68984 11.7598C4.65858 11.5429 4.59187 11.3325 4.49237 11.1372C4.32649 10.8116 4.03972 10.5507 3.46618 10.0289L3.1255 9.71895C1.89871 8.60282 1.28532 8.04476 1.36979 7.51174C1.38729 7.40134 1.42317 7.29466 1.47594 7.19613C1.73074 6.72039 2.56512 6.64566 4.23388 6.49621C5.21967 6.40793 5.71256 6.36378 6.1074 6.12581C6.21815 6.05906 6.32216 5.98173 6.41798 5.8949C6.75959 5.58533 6.94216 5.13019 7.30729 4.21991Z" fill="#12350D" stroke="#12350D" stroke-width="2"/>
</svg>
