<svg width="24" height="24" viewBox="0 0 24 24" fill="none" xmlns="http://www.w3.org/2000/svg">
<path d="M14.3995 14.8598V8.9534M5.01178 3.45978H12.0011C12.0408 4.87484 13.2003 6.00978 14.625 6.00978C16.0497 6.00978 17.2093 4.87484 17.249 3.45978H18.9882C21.0934 3.45978 22.8 5.16636 22.8 7.27154V16.7285C22.8 18.8337 21.0934 20.5402 18.9882 20.5402H17.249C17.2093 19.1252 16.0497 17.9902 14.625 17.9902C13.2003 17.9902 12.0408 19.1252 12.0011 20.5402H5.01179C2.90661 20.5402 1.20003 18.8337 1.20003 16.7285L1.20001 7.27154C1.20001 5.16636 2.9066 3.45978 5.01178 3.45978Z" stroke="black" stroke-opacity="0.5" stroke-linecap="round" stroke-linejoin="round"/>
</svg>
